<svg width="32" height="32" viewBox="0 0 32 32" fill="none" xmlns="http://www.w3.org/2000/svg">
<circle cx="16" cy="16" r="16" fill="#7566EB"/>
<path fill-rule="evenodd" clip-rule="evenodd" d="M22.7207 8.89526C24.2606 10.2813 25.1143 13.3459 24.5376 18.2C24.033 22.4827 21.1458 23.2412 20.1766 23.4959C20.0816 23.5208 20.005 23.541 19.9509 23.5591C19.6892 23.6461 17.3857 24.2421 14.3864 23.9819C14.2819 24.1068 14.1825 24.2257 14.088 24.3388C12.5613 26.1651 12.2982 26.4798 11.7552 26.3039C11.251 26.1452 11.2808 25.3559 11.2808 25.3559L11.2849 23.4077H11.2808C6.89868 22.1319 6.95989 17.4292 7.01143 14.9188C7.06298 12.4092 7.53333 10.382 8.86867 9.00077C11.8422 6.17705 20.236 6.5274 22.7215 8.89446L22.7207 8.89526ZM12.1929 25.5927C12.7833 24.9781 14.6816 22.6111 14.6816 22.6111C17.225 22.781 19.2506 22.2599 19.4689 22.1874C19.5197 22.1705 19.5931 22.1528 19.6844 22.1308C20.5098 21.9315 22.8034 21.3776 23.2277 17.8431C23.2272 17.8256 23.2334 17.7633 23.2434 17.6631C23.3443 16.6465 23.8329 11.7242 21.7465 9.87457C19.8716 8.11237 12.5127 7.56551 9.90401 10.0115C8.77324 11.1672 8.38987 12.8835 8.3496 14.9792C8.34822 15.0512 8.34662 15.1254 8.34498 15.2017C8.29892 17.3458 8.21794 21.115 11.8055 22.1431C11.8055 22.1431 11.7911 25.1175 11.7911 25.3776C11.7878 25.7739 11.9996 25.7924 12.1929 25.5927Z" fill="white"/>
<path d="M15.7326 10.4714C15.4225 10.4714 15.4225 10.9546 15.7326 10.9587C18.1383 10.9772 20.1195 12.654 20.1413 15.7298C20.1413 16.0544 20.6165 16.0504 20.6124 15.7258H20.6116C20.5859 12.4116 18.4226 10.4899 15.7326 10.4714Z" fill="white"/>
<path d="M18.897 15.22C18.8897 15.5406 19.3641 15.5559 19.3681 15.2313C19.4076 13.4038 18.2809 11.8986 16.1635 11.7399C15.8534 11.7173 15.8212 12.2046 16.1305 12.2272C17.9668 12.3665 18.934 13.6197 18.897 15.22Z" fill="white"/>
<path d="M18.3888 17.2987C17.9909 17.0684 17.5858 17.2117 17.4183 17.4381L17.0679 17.8915C16.8899 18.1218 16.5573 18.0912 16.5573 18.0912C14.1298 17.4493 13.4807 14.9091 13.4807 14.9091C13.4807 14.9091 13.4509 14.5652 13.6732 14.3808L14.1113 14.0183C14.3304 13.8444 14.4689 13.4256 14.2458 13.014C13.6498 11.9372 13.2496 11.5659 13.0458 11.2808C12.8316 11.0126 12.5094 10.9522 12.1744 11.1334H12.1671C11.4704 11.541 10.7077 12.3037 10.9518 13.0889C11.3682 13.9169 12.1333 16.5561 14.572 18.5503C15.7181 19.4934 17.5318 20.4599 18.3018 20.683L18.309 20.6943C19.0677 20.9472 19.8055 20.1546 20.1993 19.437V19.4314C20.3741 19.0843 20.3161 18.7557 20.0608 18.5406C19.6081 18.0993 18.9252 17.612 18.3888 17.2987Z" fill="white"/>
<path d="M16.4957 13.5374C17.2697 13.5825 17.645 13.9868 17.6853 14.8172C17.6998 15.1417 18.171 15.1192 18.1565 14.7946C18.1049 13.7106 17.5395 13.1065 16.5215 13.0501C16.2114 13.0316 16.1824 13.5189 16.4957 13.5374Z" fill="white"/>
</svg>
